<svg width="171" height="26" viewBox="0 0 171 26" fill="none" xmlns="http://www.w3.org/2000/svg">
<path fill-rule="evenodd" clip-rule="evenodd" d="M20.4201 18.3497C18.5236 21.5378 15.0141 23.6754 10.9983 23.6754C4.96902 23.6754 0.0830078 18.8554 0.0830078 12.9056C0.0830078 6.95764 4.96902 2.13501 10.9983 2.13501H11.0609L0.995993 12.2228H6.7231V18.3497H20.4201Z" fill="#4170C4"/>
<path fill-rule="evenodd" clip-rule="evenodd" d="M24.3958 10.5724L14.8381 0.702637L4.99023 10.5724H8.39563V16.701H20.9891V10.5724H24.3958Z" fill="#F5811B"/>
<path fill-rule="evenodd" clip-rule="evenodd" d="M35.4235 21.1858L35.5642 20.9713V22.3108H37.1216H38.6803V1.80176H37.0069H35.3459V10.8069C34.4682 10.0162 33.5667 9.62319 32.6374 9.63015C31.5727 9.63015 30.7739 9.97873 30.242 10.6689C29.7083 11.3609 29.4424 12.3996 29.4424 13.78V18.1857C29.4424 19.738 29.6907 20.8603 30.1926 21.5527C30.6897 22.2446 31.5034 22.591 32.6374 22.591C33.8737 22.591 34.8012 22.1219 35.4235 21.1858ZM35.099 12.5241C35.2644 12.9684 35.3464 13.8797 35.3464 15.2627V16.9572C35.3464 18.3407 35.2608 19.2532 35.091 19.6962C34.9239 20.1388 34.5746 20.3612 34.0484 20.3612C33.591 20.3612 33.2646 20.1754 33.0701 19.8046C32.8743 19.4325 32.7764 18.8098 32.7764 17.9329V14.3018C32.7764 13.3566 32.8646 12.7151 33.0441 12.3731C33.2214 12.0328 33.5606 11.8622 34.0612 11.8622C34.5865 11.8622 34.9336 12.0819 35.099 12.5241Z" fill="#4170C4"/>
<path fill-rule="evenodd" clip-rule="evenodd" d="M46.3344 21.4642L46.4746 21.3001V22.3111H49.7031V13.4369C49.7031 12.1397 49.3379 11.1805 48.6093 10.5608C47.8798 9.94246 46.7591 9.63 45.2489 9.63C43.6818 9.63 42.5417 9.91069 41.8263 10.4664C41.1118 11.0217 40.7603 11.9042 40.7779 13.1101V13.4774H44.1132V13.1088C44.0858 12.6001 44.1758 12.218 44.38 11.9634C44.5829 11.7106 44.9044 11.5826 45.3389 11.5826C45.6816 11.5826 45.9405 11.7001 46.1138 11.9377C46.2845 12.1723 46.3723 12.5244 46.3723 12.9874V14.5079H45.3627C43.5654 14.5079 42.3005 14.8117 41.5679 15.4131C40.8339 16.0175 40.4688 17.0576 40.4688 18.5363V19.2962C40.4688 20.3267 40.7378 21.1348 41.2781 21.717C41.8219 22.298 42.5686 22.5913 43.5231 22.5913C44.7735 22.5913 45.7129 22.2162 46.3344 21.4642ZM46.3723 18.1535C46.3723 18.9877 46.2519 19.6152 46.015 20.0347C45.7773 20.4573 45.4222 20.6666 44.9455 20.6666C44.59 20.6666 44.3099 20.5569 44.1057 20.3346C43.9024 20.1135 43.8009 19.8076 43.8009 19.4163V18.6509C43.8009 17.834 43.9637 17.2613 44.2852 16.9297C44.6072 16.5968 45.1594 16.4306 45.9405 16.4306H46.3723V18.1535Z" fill="#4170C4"/>
<path fill-rule="evenodd" clip-rule="evenodd" d="M56.4648 12.1115V22.3108H54.8034H53.1318V12.1115H51.3799V9.9104H53.1318V7.89553C53.1318 6.67834 53.4149 5.77491 53.9777 5.18916C54.5445 4.6008 55.4155 4.3075 56.5923 4.3075C57.2195 4.3075 57.8061 4.34274 58.3565 4.40802V6.55083L57.8722 6.53865C57.3606 6.53865 56.9967 6.64004 56.7841 6.8424C56.5707 7.04519 56.4648 7.39725 56.4648 7.89553V9.9104H58.3565V12.1115H56.4648Z" fill="#4170C4"/>
<path fill-rule="evenodd" clip-rule="evenodd" d="M66.6977 22.4378C66.0467 22.5292 65.3058 22.5775 64.4757 22.5775C63.4216 22.5775 62.6317 22.2702 62.0997 21.6527C61.5705 21.0417 61.3036 20.1196 61.3036 18.9002V12.101H59.5244V9.89773H61.3036V2.89443L64.6376 0.324707V9.89773H66.6977V12.101H64.6376V18.9172C64.6376 19.5182 64.7015 19.9111 64.8303 20.0974C64.9578 20.2832 65.2334 20.3781 65.6613 20.3781C66.0353 20.3642 66.382 20.3263 66.6977 20.2641V22.4378Z" fill="#4170C4"/>
<path fill-rule="evenodd" clip-rule="evenodd" d="M73.1279 7.02217H75.3786V4.89807H73.1279V7.02217ZM73.252 22.3191H75.2557V10.1355H73.252V22.3191Z" fill="#4170C4"/>
<path fill-rule="evenodd" clip-rule="evenodd" d="M85.9175 16.8666V15.8292C85.9175 11.8007 85.0389 9.89465 81.5162 9.89465C77.2376 9.89465 76.8203 12.8369 76.8203 16.4093C76.8203 21.7906 78.9021 22.5605 81.5162 22.5605C84.1079 22.5605 85.7967 21.3307 85.8223 18.6282H83.6187C83.5464 19.8589 82.8372 20.9447 81.4677 20.9447C79.9029 20.9447 78.9735 20.2688 78.9735 16.8666H85.9175ZM78.9736 15.3709C78.9983 11.9931 80.0497 11.389 81.3209 11.389C82.7896 11.389 83.7908 11.8238 83.7908 15.3709H78.9736Z" fill="#4170C4"/>
<path fill-rule="evenodd" clip-rule="evenodd" d="M68.5762 22.3107H71.3451V19.5804H68.5762V22.3107Z" fill="#4170C4"/>
<path fill-rule="evenodd" clip-rule="evenodd" d="M134.217 21.7562C133.666 22.1898 132.906 22.4066 131.938 22.4066C130.969 22.4066 130.176 22.2562 129.559 21.9554V20.6312C129.949 20.8148 130.364 20.9594 130.804 21.0648C131.243 21.1703 131.652 21.223 132.031 21.223C132.586 21.223 132.995 21.1176 133.259 20.9066C133.522 20.6957 133.654 20.4125 133.654 20.057C133.654 19.7367 133.533 19.4652 133.291 19.2426C133.049 19.0199 132.549 18.7562 131.791 18.4515C131.01 18.1351 130.459 17.7738 130.139 17.3676C129.818 16.9613 129.658 16.473 129.658 15.9027C129.658 15.1879 129.912 14.6254 130.42 14.2152C130.928 13.8051 131.609 13.6 132.465 13.6C133.285 13.6 134.102 13.7797 134.914 14.139L134.469 15.2816C133.707 14.9613 133.027 14.8011 132.43 14.8011C131.977 14.8011 131.633 14.8998 131.398 15.097C131.164 15.2943 131.047 15.5551 131.047 15.8793C131.047 16.1019 131.094 16.2924 131.188 16.4506C131.281 16.6088 131.436 16.7582 131.65 16.8988C131.865 17.0394 132.252 17.225 132.811 17.4554C133.439 17.7172 133.9 17.9613 134.193 18.1879C134.486 18.4144 134.701 18.6703 134.838 18.9554C134.975 19.2406 135.043 19.5765 135.043 19.9633C135.043 20.725 134.768 21.3226 134.217 21.7562ZM94.3145 19.9105L93.4766 22.2894H92L95.2051 13.6879H96.7285L99.9336 22.2894H98.4453L97.5898 19.9105H94.3145ZM94.7246 18.7035H97.2207L96.418 16.3715C96.3594 16.2152 96.2783 15.9691 96.1748 15.6332C96.0713 15.2972 96 15.0511 95.9609 14.8949C95.8555 15.3754 95.7012 15.9008 95.498 16.4711L94.7246 18.7035ZM102.787 25.1722C103.932 25.1722 104.807 24.973 105.412 24.5746C106.018 24.1761 106.32 23.6097 106.32 22.8754C106.32 22.3011 106.135 21.8617 105.764 21.557C105.393 21.2523 104.85 21.1 104.135 21.1H103.004C102.633 21.1 102.378 21.0629 102.239 20.9886C102.101 20.9144 102.031 20.8031 102.031 20.6547C102.031 20.4086 102.18 20.1937 102.477 20.0101C102.645 20.0414 102.832 20.057 103.039 20.057C103.848 20.057 104.482 19.8656 104.943 19.4828C105.404 19.1 105.635 18.5746 105.635 17.9066C105.635 17.684 105.602 17.473 105.535 17.2738C105.469 17.0746 105.385 16.9066 105.283 16.7699L106.391 16.5648V15.809H104.146C104.045 15.7816 103.894 15.7552 103.692 15.7299C103.491 15.7045 103.299 15.6918 103.115 15.6918C102.295 15.6918 101.663 15.8851 101.22 16.2719C100.776 16.6586 100.555 17.2035 100.555 17.9066C100.555 18.3441 100.659 18.726 100.868 19.0521C101.077 19.3783 101.35 19.6136 101.686 19.7582C101.416 19.9222 101.213 20.0883 101.076 20.2562C100.939 20.4242 100.871 20.6293 100.871 20.8715C100.871 21.0629 100.931 21.2455 101.05 21.4193C101.169 21.5931 101.32 21.7191 101.504 21.7972C101.051 21.9027 100.698 22.0912 100.446 22.3627C100.194 22.6342 100.068 22.9691 100.068 23.3676C100.068 23.9457 100.301 24.391 100.766 24.7035C101.23 25.016 101.904 25.1722 102.787 25.1722ZM102.204 18.8441C102.413 19.0629 102.713 19.1722 103.104 19.1722C103.9 19.1722 104.299 18.7465 104.299 17.8949C104.299 17.473 104.2 17.1478 104.003 16.9193C103.806 16.6908 103.506 16.5765 103.104 16.5765C102.705 16.5765 102.403 16.6898 102.198 16.9164C101.993 17.1429 101.891 17.473 101.891 17.9066C101.891 18.3129 101.995 18.6254 102.204 18.8441ZM102.828 24.223C102.344 24.223 101.968 24.1429 101.7 23.9828C101.433 23.8226 101.299 23.5941 101.299 23.2972C101.299 22.9808 101.415 22.7299 101.647 22.5443C101.88 22.3588 102.193 22.266 102.588 22.266H103.631C104.178 22.266 104.552 22.3256 104.753 22.4447C104.954 22.5638 105.055 22.764 105.055 23.0453C105.055 23.4008 104.871 23.6859 104.504 23.9008C104.137 24.1156 103.578 24.223 102.828 24.223ZM111.6 22.307C111.256 22.3734 110.863 22.4066 110.422 22.4066C109.414 22.4066 108.626 22.1127 108.058 21.5248C107.489 20.9369 107.205 20.1273 107.205 19.0961C107.205 18.0375 107.469 17.2054 107.996 16.6C108.523 15.9945 109.248 15.6918 110.17 15.6918C111.025 15.6918 111.701 15.9515 112.197 16.4711C112.693 16.9906 112.941 17.7054 112.941 18.6156V19.3597H108.623C108.643 19.9886 108.812 20.472 109.133 20.8099C109.453 21.1478 109.904 21.3168 110.486 21.3168C110.869 21.3168 111.226 21.2806 111.556 21.2084C111.886 21.1361 112.24 21.016 112.619 20.848V21.9672C112.283 22.1273 111.943 22.2406 111.6 22.307ZM111.588 18.3636H108.646C108.697 17.8324 108.854 17.4281 109.118 17.1508C109.382 16.8734 109.732 16.7347 110.17 16.7347C110.607 16.7347 110.951 16.8724 111.201 17.1478C111.451 17.4232 111.58 17.8285 111.588 18.3636ZM115.883 19.0609V22.2894H114.506V15.809H115.584L115.777 16.6586H115.848C116.043 16.35 116.32 16.1117 116.68 15.9437C117.039 15.7758 117.438 15.6918 117.875 15.6918C119.43 15.6918 120.207 16.4828 120.207 18.0648V22.2894H118.824V18.3051C118.824 17.8051 118.724 17.432 118.522 17.1859C118.321 16.9398 118.002 16.8168 117.564 16.8168C116.982 16.8168 116.557 16.9886 116.287 17.3324C116.018 17.6761 115.883 18.2523 115.883 19.0609ZM124.209 22.4066C124.467 22.4066 124.716 22.3842 124.956 22.3392C125.196 22.2943 125.393 22.2386 125.545 22.1722V21.1351C125.209 21.2406 124.873 21.2933 124.537 21.2933C124.268 21.2933 124.05 21.2142 123.884 21.056C123.718 20.8978 123.635 20.6527 123.635 20.3207V16.8519H125.48V15.809H123.635V14.3676H122.785L122.316 15.7386L121.367 16.2426V16.8519H122.252V20.3441C122.252 21.7191 122.904 22.4066 124.209 22.4066ZM136.713 25.1722C137.889 25.1722 138.729 24.4984 139.232 23.1508L142.004 15.809H140.516C139.617 18.4144 139.121 19.8705 139.027 20.1771C138.934 20.4838 138.869 20.7445 138.834 20.9594H138.787C138.721 20.4984 138.588 20.0062 138.389 19.4828L137.07 15.809H135.57L138.172 22.2894L137.932 22.8988C137.662 23.6683 137.195 24.0531 136.531 24.0531C136.266 24.0531 136.029 24.0297 135.822 23.9828V25.0726C136.111 25.139 136.408 25.1722 136.713 25.1722ZM146.65 21.8998C146.189 22.2377 145.529 22.4066 144.67 22.4066C143.807 22.4066 143.113 22.2758 142.59 22.014V20.8246C143.352 21.1761 144.061 21.3519 144.717 21.3519C145.564 21.3519 145.988 21.0961 145.988 20.5844C145.988 20.4203 145.941 20.2836 145.848 20.1742C145.754 20.0648 145.6 19.9515 145.385 19.8344C145.17 19.7172 144.871 19.5844 144.488 19.4359C143.742 19.1469 143.237 18.8578 142.974 18.5687C142.71 18.2797 142.578 17.9047 142.578 17.4437C142.578 16.889 142.802 16.4584 143.249 16.1517C143.696 15.8451 144.305 15.6918 145.074 15.6918C145.836 15.6918 146.557 15.8461 147.236 16.1547L146.791 17.1918C146.092 16.9027 145.504 16.7582 145.027 16.7582C144.301 16.7582 143.938 16.9652 143.938 17.3793C143.938 17.5824 144.032 17.7543 144.222 17.8949C144.411 18.0355 144.824 18.2289 145.461 18.475C145.996 18.682 146.385 18.8715 146.627 19.0433C146.869 19.2152 147.049 19.4135 147.166 19.6381C147.283 19.8627 147.342 20.1312 147.342 20.4437C147.342 21.0765 147.111 21.5619 146.65 21.8998ZM150.916 22.4066C151.174 22.4066 151.423 22.3842 151.663 22.3392C151.903 22.2943 152.1 22.2386 152.252 22.1722V21.1351C151.916 21.2406 151.58 21.2933 151.244 21.2933C150.975 21.2933 150.757 21.2142 150.591 21.056C150.425 20.8978 150.342 20.6527 150.342 20.3207V16.8519H152.188V15.809H150.342V14.3676H149.492L149.023 15.7386L148.074 16.2426V16.8519H148.959V20.3441C148.959 21.7191 149.611 22.4066 150.916 22.4066ZM157.555 22.307C157.211 22.3734 156.818 22.4066 156.377 22.4066C155.369 22.4066 154.581 22.1127 154.013 21.5248C153.444 20.9369 153.16 20.1273 153.16 19.0961C153.16 18.0375 153.424 17.2054 153.951 16.6C154.479 15.9945 155.203 15.6918 156.125 15.6918C156.98 15.6918 157.656 15.9515 158.152 16.4711C158.648 16.9906 158.896 17.7054 158.896 18.6156V19.3597H154.578C154.598 19.9886 154.768 20.472 155.088 20.8099C155.408 21.1478 155.859 21.3168 156.441 21.3168C156.824 21.3168 157.181 21.2806 157.511 21.2084C157.841 21.1361 158.195 21.016 158.574 20.848V21.9672C158.238 22.1273 157.898 22.2406 157.555 22.307ZM157.543 18.3636H154.602C154.652 17.8324 154.81 17.4281 155.073 17.1508C155.337 16.8734 155.688 16.7347 156.125 16.7347C156.562 16.7347 156.906 16.8724 157.156 17.1478C157.406 17.4232 157.535 17.8285 157.543 18.3636ZM161.838 19.0609V22.2894H160.461V15.809H161.539L161.732 16.6586H161.803C161.982 16.35 162.243 16.1117 162.585 15.9437C162.927 15.7758 163.303 15.6918 163.713 15.6918C164.709 15.6918 165.369 16.0316 165.693 16.7113H165.787C165.979 16.391 166.248 16.141 166.596 15.9613C166.943 15.7816 167.342 15.6918 167.791 15.6918C168.564 15.6918 169.128 15.8871 169.481 16.2777C169.835 16.6683 170.012 17.264 170.012 18.0648V22.2894H168.635V18.2933C168.635 17.7972 168.54 17.4271 168.351 17.183C168.161 16.9388 167.867 16.8168 167.469 16.8168C166.934 16.8168 166.542 16.9838 166.294 17.3177C166.046 17.6517 165.922 18.1644 165.922 18.8558V22.2894H164.539V18.2933C164.539 17.7972 164.445 17.4271 164.258 17.183C164.07 16.9388 163.777 16.8168 163.379 16.8168C162.848 16.8168 162.458 16.9896 162.21 17.3353C161.962 17.681 161.838 18.2562 161.838 19.0609Z" fill="#4170C4"/>
</svg>
